{
    "asset" : {
        "generator" : "Khronos glTF Blender I/O v1.5.17",
        "version" : "2.0"
    },
    "scene" : 0,
    "scenes" : [
        {
            "name" : "Scene",
            "nodes" : [
                8
            ]
        }
    ],
    "nodes" : [
        {
            "mesh" : 0,
            "name" : "backy"
        },
        {
            "mesh" : 1,
            "name" : "body_3"
        },
        {
            "mesh" : 2,
            "name" : "ear_l"
        },
        {
            "children" : [
                2
            ],
            "name" : "ears1"
        },
        {
            "mesh" : 3,
            "name" : "fronty"
        },
        {
            "mesh" : 4,
            "name" : "head_3"
        },
        {
            "mesh" : 5,
            "name" : "horn_l"
        },
        {
            "mesh" : 6,
            "name" : "tail_2"
        },
        {
            "children" : [
                0,
                1,
                3,
                4,
                5,
                6,
                7
            ],
            "name" : "Honse",
            "rotation" : [
                0.7071068286895752,
                0,
                0,
                0.7071067094802856
            ],
            "scale" : [
                0.10000000149011612,
                0.10000000149011612,
                0.10000000149011612
            ]
        }
    ],
    "materials" : [
        {
            "doubleSided" : true,
            "name" : "Horse_color_1",
            "pbrMetallicRoughness" : {
                "baseColorTexture" : {
                    "index" : 0
                },
                "metallicFactor" : 0,
                "roughnessFactor" : 0.5527864098548889
            }
        }
    ],
    "meshes" : [
        {
            "name" : "Mesh.005",
            "primitives" : [
                {
                    "attributes" : {
                        "POSITION" : 0,
                        "NORMAL" : 1,
                        "TEXCOORD_0" : 2
                    },
                    "indices" : 3,
                    "material" : 0
                }
            ]
        },
        {
            "name" : "Mesh.002",
            "primitives" : [
                {
                    "attributes" : {
                        "POSITION" : 4,
                        "NORMAL" : 5,
                        "TEXCOORD_0" : 6
                    },
                    "indices" : 7,
                    "material" : 0
                }
            ]
        },
        {
            "name" : "Mesh",
            "primitives" : [
                {
                    "attributes" : {
                        "POSITION" : 8,
                        "NORMAL" : 9,
                        "TEXCOORD_0" : 10
                    },
                    "indices" : 11,
                    "material" : 0
                }
            ]
        },
        {
            "name" : "Mesh.006",
            "primitives" : [
                {
                    "attributes" : {
                        "POSITION" : 12,
                        "NORMAL" : 13,
                        "TEXCOORD_0" : 14
                    },
                    "indices" : 15,
                    "material" : 0
                }
            ]
        },
        {
            "name" : "Mesh.003",
            "primitives" : [
                {
                    "attributes" : {
                        "POSITION" : 16,
                        "NORMAL" : 17,
                        "TEXCOORD_0" : 18
                    },
                    "indices" : 19,
                    "material" : 0
                }
            ]
        },
        {
            "name" : "Mesh.001",
            "primitives" : [
                {
                    "attributes" : {
                        "POSITION" : 20,
                        "NORMAL" : 21,
                        "TEXCOORD_0" : 22
                    },
                    "indices" : 23,
                    "material" : 0
                }
            ]
        },
        {
            "name" : "Mesh.004",
            "primitives" : [
                {
                    "attributes" : {
                        "POSITION" : 24,
                        "NORMAL" : 25,
                        "TEXCOORD_0" : 26
                    },
                    "indices" : 27,
                    "material" : 0
                }
            ]
        }
    ],
    "textures" : [
        {
            "sampler" : 0,
            "source" : 0
        }
    ],
    "images" : [
        {
            "bufferView" : 4,
            "mimeType" : "image/jpeg",
            "name" : "horse2"
        }
    ],
    "accessors" : [
        {
            "bufferView" : 0,
            "componentType" : 5126,
            "count" : 839,
            "max" : [
                2.4543776512145996,
                0.3847504258155823,
                0.04050653800368309
            ],
            "min" : [
                -0.5429495573043823,
                -1.764119029045105,
                -3.9763879776000977
            ],
            "type" : "VEC3"
        },
        {
            "bufferView" : 1,
            "componentType" : 5126,
            "count" : 839,
            "type" : "VEC3"
        },
        {
            "bufferView" : 2,
            "componentType" : 5126,
            "count" : 839,
            "type" : "VEC2"
        },
        {
            "bufferView" : 3,
            "componentType" : 5123,
            "count" : 4068,
            "type" : "SCALAR"
        },
        {
            "bufferView" : 5,
            "componentType" : 5126,
            "count" : 567,
            "max" : [
                2.7858636379241943,
                2.725282669067383,
                -1.7257225513458252
            ],
            "min" : [
                -0.8400651812553406,
                -1.9398994445800781,
                -5.161098957061768
            ],
            "type" : "VEC3"
        },
        {
            "bufferView" : 6,
            "componentType" : 5126,
            "count" : 567,
            "type" : "VEC3"
        },
        {
            "bufferView" : 7,
            "componentType" : 5126,
            "count" : 567,
            "type" : "VEC2"
        },
        {
            "bufferView" : 8,
            "componentType" : 5123,
            "count" : 3000,
            "type" : "SCALAR"
        },
        {
            "bufferView" : 9,
            "componentType" : 5126,
            "count" : 500,
            "max" : [
                5.398505687713623,
                3.322263240814209,
                -3.6026735305786133
            ],
            "min" : [
                -3.487077474594116,
                1.546887993812561,
                -5.215344429016113
            ],
            "type" : "VEC3"
        },
        {
            "bufferView" : 10,
            "componentType" : 5126,
            "count" : 500,
            "type" : "VEC3"
        },
        {
            "bufferView" : 11,
            "componentType" : 5126,
            "count" : 500,
            "type" : "VEC2"
        },
        {
            "bufferView" : 12,
            "componentType" : 5123,
            "count" : 2376,
            "type" : "SCALAR"
        },
        {
            "bufferView" : 13,
            "componentType" : 5126,
            "count" : 1062,
            "max" : [
                2.4429287910461426,
                2.404661178588867,
                0.03961014375090599
            ],
            "min" : [
                -0.5389055609703064,
                1.1238493919372559,
                -3.228809356689453
            ],
            "type" : "VEC3"
        },
        {
            "bufferView" : 14,
            "componentType" : 5126,
            "count" : 1062,
            "type" : "VEC3"
        },
        {
            "bufferView" : 15,
            "componentType" : 5126,
            "count" : 1062,
            "type" : "VEC2"
        },
        {
            "bufferView" : 16,
            "componentType" : 5123,
            "count" : 3828,
            "type" : "SCALAR"
        },
        {
            "bufferView" : 17,
            "componentType" : 5126,
            "count" : 535,
            "max" : [
                2.4686155319213867,
                4.627498626708984,
                -2.176755905151367
            ],
            "min" : [
                -0.6059693694114685,
                0.8252584934234619,
                -6.945164680480957
            ],
            "type" : "VEC3"
        },
        {
            "bufferView" : 18,
            "componentType" : 5126,
            "count" : 535,
            "type" : "VEC3"
        },
        {
            "bufferView" : 19,
            "componentType" : 5126,
            "count" : 535,
            "type" : "VEC2"
        },
        {
            "bufferView" : 20,
            "componentType" : 5123,
            "count" : 2934,
            "type" : "SCALAR"
        },
        {
            "bufferView" : 21,
            "componentType" : 5126,
            "count" : 378,
            "max" : [
                3.147069215774536,
                3.1940836906433105,
                -5.26161527633667
            ],
            "min" : [
                -1.2356410026550293,
                1.9709994792938232,
                -7.09744930267334
            ],
            "type" : "VEC3"
        },
        {
            "bufferView" : 22,
            "componentType" : 5126,
            "count" : 378,
            "type" : "VEC3"
        },
        {
            "bufferView" : 23,
            "componentType" : 5126,
            "count" : 378,
            "type" : "VEC2"
        },
        {
            "bufferView" : 24,
            "componentType" : 5123,
            "count" : 1668,
            "type" : "SCALAR"
        },
        {
            "bufferView" : 25,
            "componentType" : 5126,
            "count" : 388,
            "max" : [
                1.7117036581039429,
                -1.704450249671936,
                -2.4139318466186523
            ],
            "min" : [
                0.19095930457115173,
                -6.255420684814453,
                -4.895543575286865
            ],
            "type" : "VEC3"
        },
        {
            "bufferView" : 26,
            "componentType" : 5126,
            "count" : 388,
            "type" : "VEC3"
        },
        {
            "bufferView" : 27,
            "componentType" : 5126,
            "count" : 388,
            "type" : "VEC2"
        },
        {
            "bufferView" : 28,
            "componentType" : 5123,
            "count" : 1920,
            "type" : "SCALAR"
        }
    ],
    "bufferViews" : [
        {
            "buffer" : 0,
            "byteLength" : 10068,
            "byteOffset" : 0
        },
        {
            "buffer" : 0,
            "byteLength" : 10068,
            "byteOffset" : 10068
        },
        {
            "buffer" : 0,
            "byteLength" : 6712,
            "byteOffset" : 20136
        },
        {
            "buffer" : 0,
            "byteLength" : 8136,
            "byteOffset" : 26848
        },
        {
            "buffer" : 0,
            "byteLength" : 128445,
            "byteOffset" : 34984
        },
        {
            "buffer" : 0,
            "byteLength" : 6804,
            "byteOffset" : 163432
        },
        {
            "buffer" : 0,
            "byteLength" : 6804,
            "byteOffset" : 170236
        },
        {
            "buffer" : 0,
            "byteLength" : 4536,
            "byteOffset" : 177040
        },
        {
            "buffer" : 0,
            "byteLength" : 6000,
            "byteOffset" : 181576
        },
        {
            "buffer" : 0,
            "byteLength" : 6000,
            "byteOffset" : 187576
        },
        {
            "buffer" : 0,
            "byteLength" : 6000,
            "byteOffset" : 193576
        },
        {
            "buffer" : 0,
            "byteLength" : 4000,
            "byteOffset" : 199576
        },
        {
            "buffer" : 0,
            "byteLength" : 4752,
            "byteOffset" : 203576
        },
        {
            "buffer" : 0,
            "byteLength" : 12744,
            "byteOffset" : 208328
        },
        {
            "buffer" : 0,
            "byteLength" : 12744,
            "byteOffset" : 221072
        },
        {
            "buffer" : 0,
            "byteLength" : 8496,
            "byteOffset" : 233816
        },
        {
            "buffer" : 0,
            "byteLength" : 7656,
            "byteOffset" : 242312
        },
        {
            "buffer" : 0,
            "byteLength" : 6420,
            "byteOffset" : 249968
        },
        {
            "buffer" : 0,
            "byteLength" : 6420,
            "byteOffset" : 256388
        },
        {
            "buffer" : 0,
            "byteLength" : 4280,
            "byteOffset" : 262808
        },
        {
            "buffer" : 0,
            "byteLength" : 5868,
            "byteOffset" : 267088
        },
        {
            "buffer" : 0,
            "byteLength" : 4536,
            "byteOffset" : 272956
        },
        {
            "buffer" : 0,
            "byteLength" : 4536,
            "byteOffset" : 277492
        },
        {
            "buffer" : 0,
            "byteLength" : 3024,
            "byteOffset" : 282028
        },
        {
            "buffer" : 0,
            "byteLength" : 3336,
            "byteOffset" : 285052
        },
        {
            "buffer" : 0,
            "byteLength" : 4656,
            "byteOffset" : 288388
        },
        {
            "buffer" : 0,
            "byteLength" : 4656,
            "byteOffset" : 293044
        },
        {
            "buffer" : 0,
            "byteLength" : 3104,
            "byteOffset" : 297700
        },
        {
            "buffer" : 0,
            "byteLength" : 3840,
            "byteOffset" : 300804
        }
    ],
    "samplers" : [
        {
            "magFilter" : 9729,
            "minFilter" : 9987
        }
    ],
    "buffers" : [
        {
            "byteLength" : 304644,
            "uri" : "data:application/octet-stream;base64,"
        }
    ]
}
