{
    "asset" : {
        "generator" : "Khronos glTF Blender I/O v1.5.17",
        "version" : "2.0"
    },
    "scene" : 0,
    "scenes" : [
        {
            "name" : "Scene",
            "nodes" : [
                8
            ]
        }
    ],
    "nodes" : [
        {
            "mesh" : 0,
            "name" : "backy",
            "translation" : [
                0.9557141661643982,
                0.1666019707918167,
                0.03851321339607239
            ]
        },
        {
            "mesh" : 1,
            "name" : "body_3",
            "translation" : [
                0.9557141661643982,
                0.1666019707918167,
                0.03851321339607239
            ]
        },
        {
            "mesh" : 2,
            "name" : "ear_l",
            "translation" : [
                0.9557141661643982,
                0.1666019707918167,
                0.03851321339607239
            ]
        },
        {
            "children" : [
                2
            ],
            "name" : "ears1"
        },
        {
            "mesh" : 3,
            "name" : "fronty",
            "translation" : [
                0.9557141661643982,
                0.1666019707918167,
                0.03851321339607239
            ]
        },
        {
            "mesh" : 4,
            "name" : "head_3",
            "translation" : [
                0.9557141661643982,
                0.1666019707918167,
                0.03851321339607239
            ]
        },
        {
            "mesh" : 5,
            "name" : "horn_l",
            "translation" : [
                0.9557141661643982,
                0.1666019707918167,
                0.03851321339607239
            ]
        },
        {
            "mesh" : 6,
            "name" : "tail_2",
            "translation" : [
                0.9557141661643982,
                0.1666019707918167,
                0.03851321339607239
            ]
        },
        {
            "children" : [
                0,
                1,
                3,
                4,
                5,
                6,
                7
            ],
            "name" : "Honse",
            "scale" : [
                0.10000000149011612,
                0.10000000149011612,
                0.10000000149011612
            ]
        }
    ],
    "materials" : [
        {
            "doubleSided" : true,
            "name" : "Horse_color_1",
            "pbrMetallicRoughness" : {
                "baseColorTexture" : {
                    "index" : 0
                },
                "metallicFactor" : 0,
                "roughnessFactor" : 0.5527864098548889
            }
        }
    ],
    "meshes" : [
        {
            "name" : "Mesh.005",
            "primitives" : [
                {
                    "attributes" : {
                        "POSITION" : 0,
                        "NORMAL" : 1,
                        "TEXCOORD_0" : 2
                    },
                    "indices" : 3,
                    "material" : 0
                }
            ]
        },
        {
            "name" : "Mesh.002",
            "primitives" : [
                {
                    "attributes" : {
                        "POSITION" : 4,
                        "NORMAL" : 5,
                        "TEXCOORD_0" : 6
                    },
                    "indices" : 7,
                    "material" : 0
                }
            ]
        },
        {
            "name" : "Mesh",
            "primitives" : [
                {
                    "attributes" : {
                        "POSITION" : 8,
                        "NORMAL" : 9,
                        "TEXCOORD_0" : 10
                    },
                    "indices" : 11,
                    "material" : 0
                }
            ]
        },
        {
            "name" : "Mesh.006",
            "primitives" : [
                {
                    "attributes" : {
                        "POSITION" : 12,
                        "NORMAL" : 13,
                        "TEXCOORD_0" : 14
                    },
                    "indices" : 15,
                    "material" : 0
                }
            ]
        },
        {
            "name" : "Mesh.003",
            "primitives" : [
                {
                    "attributes" : {
                        "POSITION" : 16,
                        "NORMAL" : 17,
                        "TEXCOORD_0" : 18
                    },
                    "indices" : 19,
                    "material" : 0
                }
            ]
        },
        {
            "name" : "Mesh.001",
            "primitives" : [
                {
                    "attributes" : {
                        "POSITION" : 20,
                        "NORMAL" : 21,
                        "TEXCOORD_0" : 22
                    },
                    "indices" : 23,
                    "material" : 0
                }
            ]
        },
        {
            "name" : "Mesh.004",
            "primitives" : [
                {
                    "attributes" : {
                        "POSITION" : 24,
                        "NORMAL" : 25,
                        "TEXCOORD_0" : 26
                    },
                    "indices" : 27,
                    "material" : 0
                }
            ]
        }
    ],
    "textures" : [
        {
            "sampler" : 0,
            "source" : 0
        }
    ],
    "images" : [
        {
            "bufferView" : 4,
            "mimeType" : "image/jpeg",
            "name" : "glooDemo"
        }
    ],
    "accessors" : [
        {
            "bufferView" : 0,
            "componentType" : 5126,
            "count" : 839,
            "max" : [
                0.4358351230621338,
                3.833014726638794,
                -0.22535395622253418
            ],
            "min" : [
                -2.5614919662475586,
                -0.18387992680072784,
                -2.374223470687866
            ],
            "type" : "VEC3"
        },
        {
            "bufferView" : 1,
            "componentType" : 5126,
            "count" : 839,
            "type" : "VEC3"
        },
        {
            "bufferView" : 2,
            "componentType" : 5126,
            "count" : 839,
            "type" : "VEC2"
        },
        {
            "bufferView" : 3,
            "componentType" : 5123,
            "count" : 4068,
            "type" : "SCALAR"
        },
        {
            "bufferView" : 5,
            "componentType" : 5126,
            "count" : 567,
            "max" : [
                0.7673211097717285,
                5.017725944519043,
                2.115178346633911
            ],
            "min" : [
                -2.858607769012451,
                1.582349419593811,
                -2.55000376701355
            ],
            "type" : "VEC3"
        },
        {
            "bufferView" : 6,
            "componentType" : 5126,
            "count" : 567,
            "type" : "VEC3"
        },
        {
            "bufferView" : 7,
            "componentType" : 5126,
            "count" : 567,
            "type" : "VEC2"
        },
        {
            "bufferView" : 8,
            "componentType" : 5123,
            "count" : 3000,
            "type" : "SCALAR"
        },
        {
            "bufferView" : 9,
            "componentType" : 5126,
            "count" : 500,
            "max" : [
                3.3799631595611572,
                5.071971893310547,
                2.7121589183807373
            ],
            "min" : [
                -5.505620002746582,
                3.4593007564544678,
                0.9367835521697998
            ],
            "type" : "VEC3"
        },
        {
            "bufferView" : 10,
            "componentType" : 5126,
            "count" : 500,
            "type" : "VEC3"
        },
        {
            "bufferView" : 11,
            "componentType" : 5126,
            "count" : 500,
            "type" : "VEC2"
        },
        {
            "bufferView" : 12,
            "componentType" : 5123,
            "count" : 2376,
            "type" : "SCALAR"
        },
        {
            "bufferView" : 13,
            "componentType" : 5126,
            "count" : 1062,
            "max" : [
                0.42438626289367676,
                3.0854365825653076,
                1.7945568561553955
            ],
            "min" : [
                -2.557447910308838,
                -0.18298323452472687,
                0.5137450695037842
            ],
            "type" : "VEC3"
        },
        {
            "bufferView" : 14,
            "componentType" : 5126,
            "count" : 1062,
            "type" : "VEC3"
        },
        {
            "bufferView" : 15,
            "componentType" : 5126,
            "count" : 1062,
            "type" : "VEC2"
        },
        {
            "bufferView" : 16,
            "componentType" : 5123,
            "count" : 3828,
            "type" : "SCALAR"
        },
        {
            "bufferView" : 17,
            "componentType" : 5126,
            "count" : 535,
            "max" : [
                0.4500730037689209,
                6.801792144775391,
                4.017394065856934
            ],
            "min" : [
                -2.62451171875,
                2.0333831310272217,
                0.21515393257141113
            ],
            "type" : "VEC3"
        },
        {
            "bufferView" : 18,
            "componentType" : 5126,
            "count" : 535,
            "type" : "VEC3"
        },
        {
            "bufferView" : 19,
            "componentType" : 5126,
            "count" : 535,
            "type" : "VEC2"
        },
        {
            "bufferView" : 20,
            "componentType" : 5123,
            "count" : 2934,
            "type" : "SCALAR"
        },
        {
            "bufferView" : 21,
            "componentType" : 5126,
            "count" : 378,
            "max" : [
                1.1285264492034912,
                6.954076766967773,
                2.583979368209839
            ],
            "min" : [
                -3.254183530807495,
                5.1182427406311035,
                1.3608946800231934
            ],
            "type" : "VEC3"
        },
        {
            "bufferView" : 22,
            "componentType" : 5126,
            "count" : 378,
            "type" : "VEC3"
        },
        {
            "bufferView" : 23,
            "componentType" : 5126,
            "count" : 378,
            "type" : "VEC2"
        },
        {
            "bufferView" : 24,
            "componentType" : 5123,
            "count" : 1668,
            "type" : "SCALAR"
        },
        {
            "bufferView" : 25,
            "componentType" : 5126,
            "count" : 388,
            "max" : [
                -0.3068388104438782,
                4.752170562744141,
                -2.314554452896118
            ],
            "min" : [
                -1.8275831937789917,
                2.2705585956573486,
                -6.865525245666504
            ],
            "type" : "VEC3"
        },
        {
            "bufferView" : 26,
            "componentType" : 5126,
            "count" : 388,
            "type" : "VEC3"
        },
        {
            "bufferView" : 27,
            "componentType" : 5126,
            "count" : 388,
            "type" : "VEC2"
        },
        {
            "bufferView" : 28,
            "componentType" : 5123,
            "count" : 1920,
            "type" : "SCALAR"
        }
    ],
    "bufferViews" : [
        {
            "buffer" : 0,
            "byteLength" : 10068,
            "byteOffset" : 0
        },
        {
            "buffer" : 0,
            "byteLength" : 10068,
            "byteOffset" : 10068
        },
        {
            "buffer" : 0,
            "byteLength" : 6712,
            "byteOffset" : 20136
        },
        {
            "buffer" : 0,
            "byteLength" : 8136,
            "byteOffset" : 26848
        },
        {
            "buffer" : 0,
            "byteLength" : 200435,
            "byteOffset" : 34984
        },
        {
            "buffer" : 0,
            "byteLength" : 6804,
            "byteOffset" : 235420
        },
        {
            "buffer" : 0,
            "byteLength" : 6804,
            "byteOffset" : 242224
        },
        {
            "buffer" : 0,
            "byteLength" : 4536,
            "byteOffset" : 249028
        },
        {
            "buffer" : 0,
            "byteLength" : 6000,
            "byteOffset" : 253564
        },
        {
            "buffer" : 0,
            "byteLength" : 6000,
            "byteOffset" : 259564
        },
        {
            "buffer" : 0,
            "byteLength" : 6000,
            "byteOffset" : 265564
        },
        {
            "buffer" : 0,
            "byteLength" : 4000,
            "byteOffset" : 271564
        },
        {
            "buffer" : 0,
            "byteLength" : 4752,
            "byteOffset" : 275564
        },
        {
            "buffer" : 0,
            "byteLength" : 12744,
            "byteOffset" : 280316
        },
        {
            "buffer" : 0,
            "byteLength" : 12744,
            "byteOffset" : 293060
        },
        {
            "buffer" : 0,
            "byteLength" : 8496,
            "byteOffset" : 305804
        },
        {
            "buffer" : 0,
            "byteLength" : 7656,
            "byteOffset" : 314300
        },
        {
            "buffer" : 0,
            "byteLength" : 6420,
            "byteOffset" : 321956
        },
        {
            "buffer" : 0,
            "byteLength" : 6420,
            "byteOffset" : 328376
        },
        {
            "buffer" : 0,
            "byteLength" : 4280,
            "byteOffset" : 334796
        },
        {
            "buffer" : 0,
            "byteLength" : 5868,
            "byteOffset" : 339076
        },
        {
            "buffer" : 0,
            "byteLength" : 4536,
            "byteOffset" : 344944
        },
        {
            "buffer" : 0,
            "byteLength" : 4536,
            "byteOffset" : 349480
        },
        {
            "buffer" : 0,
            "byteLength" : 3024,
            "byteOffset" : 354016
        },
        {
            "buffer" : 0,
            "byteLength" : 3336,
            "byteOffset" : 357040
        },
        {
            "buffer" : 0,
            "byteLength" : 4656,
            "byteOffset" : 360376
        },
        {
            "buffer" : 0,
            "byteLength" : 4656,
            "byteOffset" : 365032
        },
        {
            "buffer" : 0,
            "byteLength" : 3104,
            "byteOffset" : 369688
        },
        {
            "buffer" : 0,
            "byteLength" : 3840,
            "byteOffset" : 372792
        }
    ],
    "samplers" : [
        {
            "magFilter" : 9729,
            "minFilter" : 9987
        }
    ],
    "buffers" : [
        {
            "byteLength" : 376632,
            "uri" : "data:application/octet-stream;base64,"
        }
    ]
}
