{
    "asset" : {
        "generator" : "Khronos glTF Blender I/O v1.6.16",
        "version" : "2.0"
    },
    "scene" : 0,
    "scenes" : [
        {
            "name" : "Scene",
            "nodes" : [
                5
            ]
        }
    ],
    "nodes" : [
        {
            "name" : "Top",
            "rotation" : [
                4.486386522700725e-12,
                -2.3825659667409127e-08,
                -0.0023828973062336445,
                0.9999972581863403
            ],
            "scale" : [
                0.9999999403953552,
                0.9999999403953552,
                1
            ],
            "translation" : [
                5.460909502374989e-15,
                1.2914557456970215,
                -4.551914400963142e-15
            ]
        },
        {
            "children" : [
                0
            ],
            "name" : "Middle",
            "rotation" : [
                -8.712697763257893e-08,
                1.249312298057248e-08,
                -0.004204249009490013,
                0.9999911785125732
            ],
            "translation" : [
                0,
                1,
                0
            ]
        },
        {
            "children" : [
                1
            ],
            "name" : "Bottom"
        },
        {
            "mesh" : 0,
            "name" : "Suzanne",
            "skin" : 0
        },
        {
            "mesh" : 1,
            "name" : "Suzanne.001",
            "skin" : 0
        },
        {
            "children" : [
                3,
                4,
                2
            ],
            "name" : "Armature",
            "scale" : [
                1,
                1.2977458238601685,
                1
            ],
            "translation" : [
                -0.04072140157222748,
                -0.00452433479949832,
                -0.02263849973678589
            ]
        }
    ],
    "meshes" : [
        {
            "name" : "Suzanne",
            "primitives" : [
                {
                    "attributes" : {
                        "POSITION" : 0,
                        "NORMAL" : 1,
                        "TEXCOORD_0" : 2,
                        "JOINTS_0" : 3,
                        "WEIGHTS_0" : 4
                    },
                    "indices" : 5
                }
            ]
        },
        {
            "name" : "Suzanne.001",
            "primitives" : [
                {
                    "attributes" : {
                        "POSITION" : 7,
                        "NORMAL" : 8,
                        "TEXCOORD_0" : 9,
                        "JOINTS_0" : 10,
                        "WEIGHTS_0" : 11
                    },
                    "indices" : 5
                }
            ]
        }
    ],
    "skins" : [
        {
            "inverseBindMatrices" : 6,
            "joints" : [
                2,
                1,
                0
            ],
            "name" : "Armature"
        }
    ],
    "accessors" : [
        {
            "bufferView" : 0,
            "componentType" : 5126,
            "count" : 1966,
            "max" : [
                -0.6164575815200806,
                3.0566179752349854,
                0.8647271990776062
            ],
            "min" : [
                -3.350832462310791,
                1.0878679752349854,
                -0.8383978009223938
            ],
            "type" : "VEC3"
        },
        {
            "bufferView" : 1,
            "componentType" : 5126,
            "count" : 1966,
            "type" : "VEC3"
        },
        {
            "bufferView" : 2,
            "componentType" : 5126,
            "count" : 1966,
            "type" : "VEC2"
        },
        {
            "bufferView" : 3,
            "componentType" : 5121,
            "count" : 1966,
            "type" : "VEC4"
        },
        {
            "bufferView" : 4,
            "componentType" : 5126,
            "count" : 1966,
            "type" : "VEC4"
        },
        {
            "bufferView" : 5,
            "componentType" : 5123,
            "count" : 2904,
            "type" : "SCALAR"
        },
        {
            "bufferView" : 6,
            "componentType" : 5126,
            "count" : 3,
            "type" : "MAT4"
        },
        {
            "bufferView" : 7,
            "componentType" : 5126,
            "count" : 1966,
            "max" : [
                3.4195408821105957,
                3.0566179752349854,
                0.8647271990776062
            ],
            "min" : [
                0.6851658821105957,
                1.0878679752349854,
                -0.8383978009223938
            ],
            "type" : "VEC3"
        },
        {
            "bufferView" : 8,
            "componentType" : 5126,
            "count" : 1966,
            "type" : "VEC3"
        },
        {
            "bufferView" : 9,
            "componentType" : 5126,
            "count" : 1966,
            "type" : "VEC2"
        },
        {
            "bufferView" : 10,
            "componentType" : 5121,
            "count" : 1966,
            "type" : "VEC4"
        },
        {
            "bufferView" : 11,
            "componentType" : 5126,
            "count" : 1966,
            "type" : "VEC4"
        }
    ],
    "bufferViews" : [
        {
            "buffer" : 0,
            "byteLength" : 23592,
            "byteOffset" : 0
        },
        {
            "buffer" : 0,
            "byteLength" : 23592,
            "byteOffset" : 23592
        },
        {
            "buffer" : 0,
            "byteLength" : 15728,
            "byteOffset" : 47184
        },
        {
            "buffer" : 0,
            "byteLength" : 7864,
            "byteOffset" : 62912
        },
        {
            "buffer" : 0,
            "byteLength" : 31456,
            "byteOffset" : 70776
        },
        {
            "buffer" : 0,
            "byteLength" : 5808,
            "byteOffset" : 102232
        },
        {
            "buffer" : 0,
            "byteLength" : 192,
            "byteOffset" : 108040
        },
        {
            "buffer" : 0,
            "byteLength" : 23592,
            "byteOffset" : 108232
        },
        {
            "buffer" : 0,
            "byteLength" : 23592,
            "byteOffset" : 131824
        },
        {
            "buffer" : 0,
            "byteLength" : 15728,
            "byteOffset" : 155416
        },
        {
            "buffer" : 0,
            "byteLength" : 7864,
            "byteOffset" : 171144
        },
        {
            "buffer" : 0,
            "byteLength" : 31456,
            "byteOffset" : 179008
        }
    ],
    "buffers" : [
        {
            "byteLength" : 210464,
            "uri" : "data:application/octet-stream;base64,"
        }
    ]
}
